<?xml version="1.0" encoding="UTF-8"?>
<!DOCTYPE svg PUBLIC "-//W3C//DTD SVG 1.1//EN" "http://www.w3.org/Graphics/SVG/1.1/DTD/svg11.dtd">
<!-- Creator: CorelDRAW X6 -->
<svg xmlns="http://www.w3.org/2000/svg" xml:space="preserve" width="65mm" height="50mm" version="1.1" style="shape-rendering:geometricPrecision; text-rendering:geometricPrecision; image-rendering:optimizeQuality; fill-rule:evenodd; clip-rule:evenodd"
viewBox="0 0 6500 5000"
 xmlns:xlink="http://www.w3.org/1999/xlink">
 <defs>
  <style type="text/css">
   <![CDATA[
    .fil0 {fill:#4E3223}
   ]]>
  </style>
 </defs>
 <g id="Слой_x0020_1">
  <metadata id="CorelCorpID_0Corel-Layer"/>
  <path class="fil0" d="M530 3652l19 0c17,0 30,1 39,3 9,1 15,4 19,8 4,4 7,9 8,16 1,7 3,17 3,28l-282 338 0 -277c0,-46 1,-75 4,-87 1,-6 3,-10 5,-14 2,-3 5,-6 9,-8 5,-2 11,-4 19,-5 9,-1 20,-2 34,-2l14 0 0 -28 -261 0 0 28 15 0c15,0 27,1 35,2 8,1 15,3 19,5 4,3 7,6 8,9 2,4 4,9 5,15 2,6 3,16 3,30 1,15 1,33 1,55l0 275c0,24 0,43 -1,58 0,15 -1,25 -3,31 -1,6 -3,11 -5,15 -2,4 -5,8 -10,10 -4,3 -11,5 -18,7 -8,1 -18,2 -30,2l-19 0 0 28 261 0 0 -28 -18 0c-17,0 -29,-1 -38,-4 -8,-3 -14,-6 -18,-11 -4,-5 -7,-12 -8,-20 -1,-8 -2,-18 -2,-29l283 -338 0 279c0,47 -2,77 -4,89 -1,6 -3,11 -5,15 -2,4 -6,8 -10,10 -5,3 -11,5 -18,7 -8,1 -18,2 -30,2l-23 0 0 28 263 0 0 -28 -17 0c-12,0 -23,-1 -31,-3 -7,-1 -14,-3 -18,-6 -5,-3 -8,-7 -10,-11 -2,-5 -4,-10 -5,-16 -1,-7 -1,-18 -2,-32 0,-14 0,-32 0,-55l0 -275c0,-46 1,-75 4,-87 1,-6 3,-10 5,-14 2,-3 5,-6 9,-8 5,-2 11,-4 19,-5 9,-1 20,-2 34,-2l12 0 0 -28 -263 0 0 28z"/>
  <path class="fil0" d="M1380 4082l-202 -455 -1 -3 -178 0 0 28 20 0c34,0 47,4 53,7 7,4 12,12 14,24 3,13 4,41 4,85l0 244c0,46 -2,78 -5,95 -3,16 -12,29 -26,40 -14,11 -33,18 -56,19l-4 0 0 28 209 0 0 -28 -4 0c-25,-2 -44,-8 -58,-20 -13,-11 -21,-25 -24,-40 -2,-16 -4,-47 -4,-91l0 -308 215 484 2 3 25 0 214 -486 0 335c0,47 -1,77 -3,89 -3,12 -8,20 -16,25 -9,6 -25,9 -47,9l-24 0 0 28 276 0 0 -28 -29 0c-24,0 -41,-3 -49,-9 -8,-6 -13,-15 -15,-28 -2,-13 -3,-42 -3,-86l0 -275c0,-46 1,-75 4,-87 3,-11 8,-19 15,-23 6,-2 19,-6 52,-6l25 0 0 -28 -179 0 -201 458z"/>
  <path class="fil0" d="M1963 3652l15 0c15,0 26,1 35,2 8,1 15,3 19,5 4,3 7,6 9,9 1,4 3,9 4,15 2,6 3,16 3,30 1,15 1,33 1,55l0 275c0,24 0,43 -1,58 0,15 -1,25 -3,31 -1,6 -3,11 -5,15 -2,4 -5,8 -10,10 -4,3 -11,5 -18,7 -8,1 -18,2 -30,2l-19 0 0 28 261 0 0 -28 -19 0c-12,0 -22,-1 -30,-3 -8,-1 -14,-3 -19,-6 -4,-3 -7,-7 -9,-11 -2,-4 -4,-10 -5,-16 -1,-7 -2,-18 -2,-32 -1,-14 -1,-32 -1,-55l0 -275c0,-46 1,-75 4,-87 1,-6 3,-10 5,-14 2,-3 5,-6 9,-8 5,-2 11,-4 19,-5 9,-1 20,-2 34,-2l142 0c14,0 26,1 35,2 8,1 14,3 19,5 4,3 7,6 8,9 2,4 4,9 5,15 2,13 4,41 4,85l0 275c0,47 -2,77 -4,89 -1,6 -3,11 -5,15 -2,4 -6,8 -10,10 -5,3 -11,5 -18,7 -8,1 -18,2 -30,2l-23 0 0 28 263 0 0 -28 -17 0c-12,0 -23,-1 -31,-3 -7,-1 -14,-3 -18,-6 -5,-3 -8,-7 -10,-11 -2,-5 -4,-10 -5,-16 -1,-7 -1,-18 -2,-32 0,-14 -1,-32 -1,-55l0 -275c0,-46 2,-75 5,-87 1,-6 3,-10 5,-14 2,-3 5,-6 9,-8 5,-2 11,-4 19,-5 9,-1 20,-2 34,-2l12 0 0 -28 -633 0 0 28z"/>
  <path class="fil0" d="M3269 4014c-10,40 -23,73 -40,96 -17,22 -34,38 -53,45 -18,7 -42,11 -71,11l-41 0c-45,0 -61,-9 -66,-16 -5,-7 -12,-33 -12,-114l0 -129 57 0c24,0 40,2 50,5 9,3 16,9 20,18 5,10 8,31 8,61l0 4 28 0 0 -200 -28 0 0 4c0,27 -2,45 -5,54 -3,9 -9,15 -19,19 -11,4 -29,7 -56,7l-55 0 0 -227 73 0c39,0 67,2 85,6 16,4 31,14 43,30 12,16 23,43 31,81l1 4 28 0 -14 -149 -409 0 0 28 4 0c33,0 46,4 51,8 7,4 12,13 14,25 3,13 4,41 4,83l0 275c0,47 -1,76 -4,87 -2,11 -6,19 -14,26 -5,4 -18,10 -51,10l-16 0 0 28 473 0 13 -184 -28 0 -1 4z"/>
  <path class="fil0" d="M3847 3852c-12,20 -28,33 -47,39 -19,6 -45,10 -77,10l-35 -1 0 -251c9,-1 22,-1 38,-1 50,0 86,11 108,31 21,21 32,54 32,99 0,29 -6,54 -19,74zm6 -219c-32,-9 -77,-14 -135,-14 -31,0 -76,1 -132,3l-74 2 0 28 14 0c35,0 48,4 54,7 7,4 12,12 14,24 2,13 4,41 4,85l0 275c0,47 -2,77 -4,89 -2,12 -7,20 -16,25 -8,6 -24,9 -47,9l-19 0 0 28 265 0 0 -28 -23 0c-24,0 -40,-3 -48,-9 -9,-6 -14,-15 -15,-28 -2,-13 -3,-42 -3,-86l0 -113 57 0c65,0 110,-6 136,-19 26,-12 47,-31 61,-55 14,-24 21,-52 21,-83 0,-36 -11,-67 -31,-90 -21,-24 -47,-41 -79,-50z"/>
  <path class="fil0" d="M4525 3652l19 0c17,0 30,1 40,3 8,1 15,4 19,8 4,4 7,9 8,16 1,7 2,17 3,28l-283 338 0 -277c0,-46 2,-75 4,-87 2,-6 3,-10 6,-14 2,-3 5,-6 9,-8 5,-2 11,-4 19,-5 8,-1 19,-2 33,-2l15 0 0 -28 -261 0 0 28 15 0c14,0 26,1 35,2 8,1 14,3 19,5 4,3 6,6 8,9 2,4 4,9 5,15 1,6 2,16 3,30 1,15 1,33 1,55l0 275c0,24 0,43 -1,58 -1,15 -2,25 -3,31 -1,6 -3,11 -5,15 -2,4 -6,8 -10,10 -5,3 -11,5 -18,7 -8,1 -18,2 -30,2l-19 0 0 28 261 0 0 -28 -19 0c-16,0 -28,-1 -37,-4 -9,-3 -15,-6 -19,-11 -4,-5 -6,-12 -7,-20 -2,-8 -2,-18 -3,-29l283 -338 0 279c0,47 -1,77 -3,89 -2,6 -3,11 -6,15 -2,4 -5,8 -9,10 -5,3 -11,5 -19,7 -7,1 -17,2 -29,2l-24 0 0 28 264 0 0 -28 -17 0c-13,0 -23,-1 -31,-3 -8,-1 -14,-3 -19,-6 -4,-3 -7,-7 -9,-11 -2,-5 -4,-10 -5,-16 -1,-7 -2,-18 -2,-32 -1,-14 -1,-32 -1,-55l0 -275c0,-46 2,-75 4,-87 1,-6 3,-10 5,-14 2,-3 5,-6 10,-8 4,-2 11,-4 19,-5 8,-1 20,-2 33,-2l13 0 0 -28 -264 0 0 28z"/>
  <path class="fil0" d="M5334 3960l-184 0 92 -223 92 223zm186 193c-9,-8 -17,-17 -22,-30l-26 -59 -187 -445 -1 -3 -22 0 -164 392c-12,28 -19,44 -20,48 -17,43 -31,72 -43,85 -11,13 -29,21 -53,25l-3 1 0 27 175 0 0 -28 -4 0c-17,0 -31,-4 -42,-12 -10,-8 -15,-19 -15,-35 0,-15 11,-48 32,-99l13 -33 207 0 42 101c16,39 19,49 19,53 0,10 -4,16 -12,19 -9,4 -27,6 -53,6l-4 0 0 28 229 0 0 -28 -4 0c-19,-2 -33,-6 -42,-13z"/>
  <path class="fil0" d="M6250 3681c1,-6 3,-10 5,-14 2,-3 5,-6 9,-8 5,-2 12,-4 20,-5 8,-1 19,-2 33,-2l13 0 0 -28 -463 0 0 28 15 0c14,0 25,2 33,6 7,4 13,12 17,23 4,12 7,30 8,52 1,23 2,53 2,90 0,21 0,45 -1,71 0,26 -2,53 -4,79 -2,27 -5,53 -10,78 -4,25 -11,47 -19,67 -8,19 -17,34 -29,46 -11,11 -25,16 -41,16 -9,0 -16,-1 -20,-3 -3,-1 -5,-4 -5,-8 0,-1 0,-2 1,-5l4 -9c1,-4 2,-8 3,-11 1,-4 2,-8 2,-11 0,-7 -1,-13 -4,-18 -2,-6 -6,-10 -10,-15 -4,-4 -9,-7 -15,-9 -11,-5 -25,-5 -37,0 -5,2 -10,6 -15,11 -4,4 -7,9 -9,15 -3,6 -4,13 -4,20 0,9 3,19 7,27 5,9 11,16 20,23 8,6 18,12 30,16 12,4 25,6 40,6 37,0 68,-8 92,-23 23,-16 42,-40 56,-71 13,-31 22,-72 27,-120 4,-48 7,-106 7,-172 0,-14 0,-27 0,-41 -1,-13 -1,-26 -2,-39 -1,-12 -1,-24 -2,-35 -1,-11 -2,-20 -3,-28 0,-4 1,-8 3,-11 3,-3 7,-6 12,-9 6,-2 14,-4 24,-6 9,-1 21,-2 35,-2l10 0c15,0 27,1 35,2 9,1 15,3 19,5 5,3 7,6 9,9 2,4 3,9 5,15 2,13 3,41 3,85l0 275c0,47 -1,77 -3,89 -2,6 -4,11 -6,15 -2,4 -5,8 -10,10 -4,3 -10,5 -18,7 -7,1 -17,2 -29,2l-24 0 0 28 264 0 0 -28 -17 0c-13,0 -23,-1 -31,-3 -8,-1 -14,-3 -19,-6 -4,-3 -7,-7 -9,-11 -2,-5 -4,-10 -5,-16 -1,-7 -2,-18 -2,-32 -1,-14 -1,-32 -1,-55l0 -275c0,-46 1,-75 4,-87z"/>
  <path class="fil0" d="M2819 2182l836 -1001c-2,-35 -5,-64 -9,-87 -4,-22 -13,-40 -27,-53 -14,-13 -34,-22 -62,-27 -27,-5 -65,-7 -114,-7l-43 0 0 -54 732 0 0 54 -23 0c-41,0 -73,2 -98,5 -25,3 -45,8 -60,15 -14,7 -25,17 -32,29 -6,12 -12,26 -16,44 -8,34 -12,118 -12,254l0 789c0,64 1,116 2,157 1,42 4,72 7,92 3,19 8,36 15,50 6,15 17,27 32,37 14,9 33,16 57,21 24,5 54,7 92,7l36 0 0 55 -732 0 0 -55 56 0c35,0 64,-2 87,-7 23,-4 41,-11 56,-20 15,-9 25,-20 33,-33 7,-13 12,-29 16,-47 7,-36 11,-122 11,-257l0 -838 -838 1000c1,35 3,65 7,90 3,26 12,47 25,63 13,17 32,29 59,37 26,8 63,12 111,12l41 0 0 55 -723 0 0 -55 41 0c36,0 65,-2 88,-7 23,-4 42,-11 56,-20 15,-9 26,-20 33,-33 7,-13 13,-29 17,-47 4,-18 6,-49 8,-92 2,-43 3,-98 3,-165l0 -789c0,-65 -1,-117 -3,-159 -2,-41 -4,-71 -8,-89 -4,-18 -9,-33 -15,-46 -6,-12 -16,-22 -30,-30 -14,-8 -33,-14 -59,-18 -25,-3 -59,-5 -102,-5l-29 0 0 -54 723 0 0 54 -29 0c-41,0 -73,2 -98,5 -24,3 -44,8 -58,15 -15,7 -26,17 -32,29 -7,12 -12,26 -16,44 -8,34 -12,118 -12,254l0 828z"/>
  <path class="fil0" d="M2461 643l-196 -431 588 196 392 -314 392 314 588 -196 -196 431c0,0 -392,-39 -784,-39 -392,0 -784,39 -784,39z"/>
  <polygon class="fil0" points="6350,3340 141,3340 141,3269 6350,3269 "/>
  <path class="fil0" d="M3401 4474c-84,0 -158,45 -200,112 -41,-67 -115,-112 -200,-112l-1802 0 0 71 1802 0c91,0 165,74 165,165l70 0c0,-91 74,-165 165,-165l1890 0 0 -71 -1890 0z"/>
 </g>
</svg>
